<?xml version="1.0" encoding="iso-8859-1"?>
<!-- Generator: Adobe Illustrator 16.0.0, SVG Export Plug-In . SVG Version: 6.00 Build 0)  -->
<!DOCTYPE svg PUBLIC "-//W3C//DTD SVG 1.1//EN" "http://www.w3.org/Graphics/SVG/1.1/DTD/svg11.dtd">
<svg version="1.1" id="Capa_1" xmlns="http://www.w3.org/2000/svg" xmlns:xlink="http://www.w3.org/1999/xlink" x="0px" y="0px"
	 width="106.048px" height="106.048px" viewBox="0 0 106.048 106.048" style="enable-background:new 0 0 106.048 106.048;"
	 xml:space="preserve">
<g>
	<path style="fill:#010002;" d="M106.048,56.204v19.609c-2.361-1.01-5.178-2.661-5.882-4.878c-0.928-2.791-2.134-8.389,2.94-8.834
		c0,0-6.399-7.467-11.785,2.951c-4.07,7.938-6.959,11.402-8.834,11.781h-2.946c-1.869-0.451-4.8-2.543-5.888-5.889
		c-0.927-2.796-2.133-8.388,2.941-8.844c0,0-6.4-7.462-11.785,2.957c-4.086,7.938-6.954,11.407-8.834,11.78h-2.946
		c-1.872-0.45-4.803-2.548-5.891-5.894c-0.924-2.791-2.128-8.388,2.946-8.833c0,0-6.41-7.467-11.785,2.951
		c-4.088,7.938-6.957,11.402-8.834,11.78h-2.954c-1.856-0.45-4.797-2.543-5.885-5.888c-0.914-2.796-2.139-8.389,2.946-8.844
		c0,0-6.416-7.462-11.785,2.956C8.829,70.78,3.472,74.146,0,75.735V47.897C6.664,24.992,23.796,5.649,41.241,5.649
		c8.935,0,15.407,1.973,17.676,5.901c2.175,3.671,2.257,10.452-2.952,11.778c-2.175,0.557-7.5-0.966-8.826-2.949
		c-0.924-1.383-2.762-2.307,0-5.89c-15.335-3.912-26.688,33.352,8.837,38.3c4.712-18.041,18.6-32.405,32.399-32.405
		c6.877,0,10.04,2.858,11.791,5.888c1.651,2.825,1.04,7.832-2.952,8.839c-1.678,0.451-5.069-1.294-5.893-2.938
		c-0.818-1.654-0.642-4.696,2.951-5.9C81.887,23.1,73.354,54.526,106.048,56.204z M20.627,76.833c0,0-6.416-7.473-11.788,2.945
		C6.638,84.046,3.107,86.988,0,88.882v11.517h106.048V91.56c-1.874-0.451-7.752-2.543-8.834-5.889
		c-0.922-2.806-2.123-8.388,2.952-8.838c0,0-6.4-7.473-11.791,2.945c-4.075,7.943-6.965,11.408-8.834,11.786h-2.946
		c-1.869-0.45-4.806-2.538-5.893-5.888c-0.922-2.802-2.123-8.389,2.951-8.839c0,0-6.41-7.467-11.79,2.951
		c-4.086,7.943-6.955,11.402-8.834,11.78H50.08c-1.872-0.45-4.803-2.543-5.89-5.888c-0.917-2.807-2.125-8.389,2.949-8.839
		c0,0-6.41-7.472-11.782,2.946c-4.094,7.933-6.957,11.397-8.845,11.771h-2.943c-1.859-0.451-4.803-2.543-5.891-5.889
		C16.767,82.866,15.542,77.284,20.627,76.833z"/>
</g>
<g>
</g>
<g>
</g>
<g>
</g>
<g>
</g>
<g>
</g>
<g>
</g>
<g>
</g>
<g>
</g>
<g>
</g>
<g>
</g>
<g>
</g>
<g>
</g>
<g>
</g>
<g>
</g>
<g>
</g>
</svg>
